<?xml version="1.0" encoding="UTF-8" standalone="no"?>
<!-- Created with Inkscape (http://www.inkscape.org/) -->

<svg
   xmlns:dc="http://purl.org/dc/elements/1.1/"
   xmlns:cc="http://creativecommons.org/ns#"
   xmlns:rdf="http://www.w3.org/1999/02/22-rdf-syntax-ns#"
   xmlns:svg="http://www.w3.org/2000/svg"
   xmlns="http://www.w3.org/2000/svg"
   xmlns:sodipodi="http://sodipodi.sourceforge.net/DTD/sodipodi-0.dtd"
   xmlns:inkscape="http://www.inkscape.org/namespaces/inkscape"
   width="304.94922"
   height="313.61258"
   id="svg2"
   version="1.1"
   inkscape:version="0.48.2 r9819"
   sodipodi:docname="tgux logo.svg">
  <defs
     id="defs4" />
  <sodipodi:namedview
     id="base"
     pagecolor="#ffffff"
     bordercolor="#666666"
     borderopacity="1.0"
     inkscape:pageopacity="0.0"
     inkscape:pageshadow="2"
     inkscape:zoom="0.7"
     inkscape:cx="381.93811"
     inkscape:cy="-15.391633"
     inkscape:document-units="px"
     inkscape:current-layer="layer1"
     showgrid="false"
     inkscape:window-width="1344"
     inkscape:window-height="831"
     inkscape:window-x="270"
     inkscape:window-y="233"
     inkscape:window-maximized="0"
     fit-margin-top="0"
     fit-margin-left="0"
     fit-margin-right="0"
     fit-margin-bottom="0" />
  <metadata
     id="metadata7">
    <rdf:RDF>
      <cc:Work
         rdf:about="">
        <dc:format>image/svg+xml</dc:format>
        <dc:type
           rdf:resource="http://purl.org/dc/dcmitype/StillImage" />
        <dc:title />
      </cc:Work>
    </rdf:RDF>
  </metadata>
  <g
     inkscape:label="Layer 1"
     inkscape:groupmode="layer"
     id="layer1"
     transform="translate(-20.894836,-9.6732572)">
    <path
       sodipodi:type="arc"
       style="fill:#008000;fill-opacity:1;fill-rule:nonzero;stroke:#008000;stroke-width:5;stroke-linecap:butt;stroke-linejoin:miter;stroke-miterlimit:4;stroke-opacity:1;stroke-dasharray:none;stroke-dashoffset:0"
       id="path3863"
       sodipodi:cx="719.28571"
       sodipodi:cy="205.93361"
       sodipodi:rx="59.285713"
       sodipodi:ry="89.285713"
       d="m 778.57142,205.93361 c 0,49.31114 -26.54312,89.28571 -59.28571,89.28571 -32.41152,0 -58.81548,-39.19956 -59.27964,-88.00707"
       sodipodi:start="0"
       sodipodi:end="3.1272714"
       sodipodi:open="true"
       transform="matrix(-0.76180003,0.64781225,-0.64781225,-0.76180003,778.14079,-218.78415)"
       inkscape:export-filename="/Volumes/Data/chief/thatgamesux/tgux_logo_big.png"
       inkscape:export-xdpi="59.99535"
       inkscape:export-ydpi="59.99535" />
    <path
       transform="translate(-177.14286,-298.57145)"
       sodipodi:open="true"
       sodipodi:end="6.2826045"
       sodipodi:start="0"
       d="m 485.71428,478.07648 c 0,71.00804 -57.56339,128.57142 -128.57143,128.57142 -71.00804,0 -128.57142,-57.56338 -128.57142,-128.57142 0,-71.00804 57.56338,-128.57143 128.57142,-128.57143 70.97888,0 128.53018,57.51789 128.57141,128.49675"
       sodipodi:ry="128.57143"
       sodipodi:rx="128.57143"
       sodipodi:cy="478.07648"
       sodipodi:cx="357.14285"
       id="path3843"
       style="fill:#242424;fill-opacity:1;fill-rule:nonzero;stroke:none"
       sodipodi:type="arc"
       inkscape:export-filename="/Volumes/Data/chief/thatgamesux/tgux_logo_big.png"
       inkscape:export-xdpi="59.99535"
       inkscape:export-ydpi="59.99535" />
    <g
       transform="matrix(1.4103789,0,0,1.4103789,-362.03944,-546.48466)"
       style="font-size:144px;font-style:normal;font-variant:normal;font-weight:normal;font-stretch:normal;text-align:center;line-height:125%;letter-spacing:0px;word-spacing:0px;text-anchor:middle;fill:#008000;fill-opacity:1;stroke:none;font-family:Bebas Neue;-inkscape-font-specification:Bebas Neue"
       id="flowRoot3845">
      <path
         d="m 328.27438,463.7 0,76.752 c 0,16.12798 8.06401,25.344 23.61599,25.344 15.55199,0 23.616,-9.21602 23.616,-25.344 l 0,-76.752 -14.976,0 0,77.76 c 0,7.19999 -3.168,9.792 -8.20799,9.792 -5.04,0 -8.20801,-2.59201 -8.20801,-9.792 l 0,-77.76 -15.83999,0"
         style=""
         id="path2994" />
      <path
         d="m 424.52938,463.7 -12.24001,37.152 -11.952,-37.152 -16.416,0 16.56001,48.96 -17.712,51.84 14.832,0 13.10399,-39.888 12.96,39.888 16.704,0 -17.712,-51.84 16.56,-48.96 -14.68799,0"
         style=""
         id="path2996" />
    </g>
    <path
       transform="matrix(1.062715,0,0,1.0466672,-199.54107,-320.8819)"
       sodipodi:type="arc"
       style="fill:none;stroke:#008000;stroke-width:17.46397972;stroke-miterlimit:4;stroke-opacity:1;stroke-dasharray:none"
       id="path3853"
       sodipodi:cx="357.14285"
       sodipodi:cy="478.07648"
       sodipodi:rx="128.57143"
       sodipodi:ry="128.57143"
       d="m 485.71428,478.07648 c 0,71.00804 -57.56339,128.57142 -128.57143,128.57142 -71.00804,0 -128.57142,-57.56338 -128.57142,-128.57142 0,-71.00804 57.56338,-128.57143 128.57142,-128.57143 71.00804,0 128.57143,57.56339 128.57143,128.57143 z"
       inkscape:export-filename="/Volumes/Data/chief/thatgamesux/tgux_logo_big.png"
       inkscape:export-xdpi="59.99535"
       inkscape:export-ydpi="59.99535" />
    <g
       transform="matrix(0.28881034,-0.25557404,0.25557404,0.28881034,-173.40788,5.0880752)"
       style="font-size:144px;font-style:normal;font-variant:normal;font-weight:normal;font-stretch:normal;text-align:center;line-height:125%;letter-spacing:7.09439659px;word-spacing:0px;text-anchor:middle;fill:#ffffff;fill-opacity:0.94117647;stroke:none;font-family:Bebas Neue;-inkscape-font-specification:Bebas Neue"
       id="flowRoot3855">
      <path
         d="m 326.74543,478.1 16.56,0 0,86.4 15.84,0 0,-86.4 16.56,0 0,-14.4 -48.96,0 0,14.4"
         style="fill:#ffffff"
         id="path2999" />
      <path
         d="m 413.39533,522.74 7.2,0 0,18.576 c 0,7.19999 -3.16801,9.792 -8.208,9.792 -5.04,0 -8.208,-2.59201 -8.208,-9.792 l 0,-54.432 c 0,-7.19999 3.168,-9.936 8.208,-9.936 5.03999,0 8.208,2.73601 8.208,9.936 l 0,10.8 14.976,0 0,-9.792 c 0,-16.12798 -8.06402,-25.344 -23.616,-25.344 -15.55199,0 -23.616,9.21602 -23.616,25.344 l 0,52.416 c 0,16.12798 8.06401,25.344 23.616,25.344 15.55198,0 23.616,-9.21602 23.616,-25.344 l 0,-31.968 -22.176,0 0,14.4"
         style="fill:#ffffff"
         id="path3001" />
    </g>
  </g>
</svg>
